<?xml version="1.0" encoding="iso-8859-1"?>
<!-- Generator: Adobe Illustrator 19.0.0, SVG Export Plug-In . SVG Version: 6.00 Build 0)  -->
<svg version="1.1" id="Layer_1" xmlns="http://www.w3.org/2000/svg" xmlns:xlink="http://www.w3.org/1999/xlink" x="0px" y="0px"
	 viewBox="0 0 512 512" style="enable-background:new 0 0 512 512;" xml:space="preserve">
<path style="fill:#CAF9F4;" d="M321.306,7.837L321.306,7.837c6.636,0,12.016,5.38,12.016,12.016v118.596H309.29V19.853
	C309.29,13.217,314.67,7.837,321.306,7.837z"/>
<rect x="303.02" y="138.449" style="fill:#4B92B9;" width="36.571" height="31.347"/>
<path style="fill:#79CAE8;" d="M240.327,133.224L240.327,133.224c8.656,0,15.673,7.018,15.673,15.673v20.898h-31.347v-20.898
	C224.653,140.242,231.671,133.224,240.327,133.224z"/>
<path style="fill:#FF503D;" d="M188.082,133.224L188.082,133.224c8.656,0,15.673,7.018,15.673,15.673v20.898h-31.347v-20.898
	C172.408,140.242,179.426,133.224,188.082,133.224z"/>
<path style="fill:#4B92B9;" d="M323.918,504.163H188.082c-11.542,0-20.898-9.356-20.898-20.898V382.392l-10.449-37.091V169.796
	h198.531v175.505l-10.449,37.091v100.873C344.816,494.807,335.46,504.163,323.918,504.163z"/>
<path style="fill:#FFD85C;" d="M256.021,353.611h-0.042c-39.519,0-71.555-32.037-71.555-71.555v-60.103
	c0-11.542,9.356-20.898,20.898-20.898h101.355c11.542,0,20.898,9.356,20.898,20.898v60.103
	C327.576,321.575,295.539,353.611,256.021,353.611z"/>
<path style="fill:#CAF9F4;" d="M327.576,262.792v19.268c0,39.517-32.037,71.554-71.555,71.554h-0.042
	c-39.518,0-71.555-32.037-71.555-71.554v-19.268c0,11.546,9.362,20.898,20.898,20.898h101.355
	C318.213,283.69,327.576,274.338,327.576,262.792z"/>
<g>
	<circle style="fill:#79CAE8;" cx="196.441" cy="321.86" r="15.673"/>
	<circle style="fill:#79CAE8;" cx="315.559" cy="321.86" r="15.673"/>
	<circle style="fill:#79CAE8;" cx="256" cy="353.207" r="20.898"/>
</g>
<path d="M347.429,161.959v-31.347h-6.269V19.853C341.159,8.906,332.253,0,321.306,0c-10.947,0-19.853,8.906-19.853,19.853v110.759
	h-6.269v31.347h-31.347v-13.061c0-12.963-10.547-23.51-23.51-23.51s-23.51,10.547-23.51,23.51v13.061h-5.224v-13.061
	c0-12.963-10.547-23.51-23.51-23.51c-12.963,0-23.51,10.547-23.51,23.51v13.061h-15.673v184.424l10.449,37.091v99.791
	c0,15.844,12.891,28.735,28.735,28.735h135.837c15.844,0,28.735-12.891,28.735-28.735v-99.791l10.449-37.091V161.959H347.429z
	 M317.127,19.853c0-2.305,1.875-4.18,4.18-4.18c2.305,0,4.18,1.875,4.18,4.18v110.759h-8.359V19.853z M310.857,146.286h20.898
	v15.673h-20.898V146.286z M232.49,148.898c0-4.322,3.515-7.837,7.837-7.837s7.837,3.515,7.837,7.837v13.061H232.49V148.898z
	 M180.245,148.898c0-4.322,3.515-7.837,7.837-7.837s7.837,3.515,7.837,7.837v13.061h-15.673V148.898z M347.429,344.219
	l-10.449,37.091v101.956c0,7.202-5.859,13.061-13.061,13.061H188.082c-7.202,0-13.061-5.859-13.061-13.061V381.309l-10.449-37.091
	V177.633h182.857V344.219z"/>
<path d="M172.931,321.862c0,12.963,10.547,23.51,23.51,23.51c3.282,0,6.408-0.678,9.249-1.899
	c6.523,5.342,13.888,9.635,21.723,12.662c1.471,14.474,13.731,25.808,28.586,25.808c14.852,0,27.11-11.329,28.585-25.797
	c7.833-3.027,15.197-7.324,21.725-12.671c2.84,1.219,5.966,1.898,9.248,1.898c12.963,0,23.51-10.547,23.51-23.51
	c0-6.568-2.712-12.514-7.069-16.784c2.254-7.423,3.412-15.137,3.412-23.018v-60.103c0-15.844-12.891-28.735-28.735-28.735H205.322
	c-15.844,0-28.735,12.891-28.735,28.735v60.103c0,7.881,1.159,15.595,3.412,23.018C175.641,309.349,172.931,315.294,172.931,321.862
	z M188.604,321.862c0-4.322,3.515-7.837,7.837-7.837s7.837,3.515,7.837,7.837s-3.515,7.837-7.837,7.837
	S188.604,326.184,188.604,321.862z M256,366.27c-7.202,0-13.061-5.859-13.061-13.061s5.859-13.061,13.061-13.061
	c7.202,0,13.061,5.859,13.061,13.061S263.202,366.27,256,366.27z M315.559,329.699c-4.322,0-7.837-3.515-7.837-7.837
	s3.515-7.837,7.837-7.837s7.837,3.515,7.837,7.837S319.881,329.699,315.559,329.699z M192.261,221.957
	c0-7.202,5.859-13.061,13.061-13.061h101.355c7.202,0,13.061,5.859,13.061,13.061v40.835c0,7.202-5.859,13.061-13.061,13.061
	H205.322c-7.202,0-13.061-5.859-13.061-13.061V221.957z M192.596,288.545c3.839,1.905,8.159,2.981,12.727,2.981h101.355
	c4.568,0,8.888-1.076,12.727-2.981c-0.337,3.357-0.945,6.661-1.807,9.901c-0.673-0.059-1.351-0.094-2.039-0.094
	c-12.963,0-23.51,10.547-23.51,23.51c0,3.9,0.959,7.576,2.647,10.816c-4.019,3.074-8.387,5.669-12.993,7.705
	c-4.722-9.422-14.466-15.909-25.701-15.909c-11.233,0-20.975,6.484-25.698,15.901c-4.609-2.035-8.98-4.629-12.996-7.699
	c1.686-3.239,2.646-6.916,2.646-10.815c0-12.963-10.547-23.51-23.51-23.51c-0.688,0-1.366,0.036-2.039,0.094
	C193.54,295.207,192.933,291.902,192.596,288.545z"/>
<rect x="229.878" y="409.778" width="52.245" height="15.673"/>
<rect x="214.204" y="435.9" width="83.592" height="15.673"/>
<rect x="229.878" y="462.023" width="52.245" height="15.673"/>
<circle style="fill:#79CAE8;" cx="309.081" cy="398.064" r="10.449"/>
<g>
</g>
<g>
</g>
<g>
</g>
<g>
</g>
<g>
</g>
<g>
</g>
<g>
</g>
<g>
</g>
<g>
</g>
<g>
</g>
<g>
</g>
<g>
</g>
<g>
</g>
<g>
</g>
<g>
</g>
</svg>
